# xmcd
#
# Track frame offsets: 
#        150
#        20720
#        36106
#        54591
#        76196
#        98456
#        119307
#        141354
#        160861
#        179197
#        204652
#
# Disc length: 2950 seconds
#
# Revision: 0
# Processed by: cddbd v1.5.2PL0 Copyright (c) Steve Scherf et al.
# Submitted via: ExactAudioCopyFreeDBPlugin 1.0
#
DISCID=940b840b
DTITLE=Two Tone Steiny and The Cadillacs - Alright!
DYEAR=2015
DGENRE=Blues
TTITLE0=On My Way To Memphis
TTITLE1=Misbehavin' Baby
TTITLE2=Alright
TTITLE3=Bring That Little Thing
TTITLE4=Alley Cat
TTITLE5=I Don't Want Your Money
TTITLE6=I Got A Feelin'
TTITLE7=Feelin' Like A Man
TTITLE8=Dirty Little Secret
TTITLE9=I Don't Need You Baby
TTITLE10=That Thing You Do
EXTD=
EXTT0=
EXTT1=
EXTT2=
EXTT3=
EXTT4=
EXTT5=
EXTT6=
EXTT7=
EXTT8=
EXTT9=
EXTT10=
PLAYORDER=
